# xmcd
#
# Track frame offsets: 
#        150
#        16392
#        33372
#        52072
#        74287
#        98565
#        118852
#        135677
#        152402
#        171530
#        185460
#        199232
#        217347
#        234602
#        251635
#        269847
#        292860
#
# Disc length: 4181 seconds
#
# Revision: 3
# Processed by: cddbd v1.5.2PL0 Copyright (c) Steve Scherf et al.
# Submitted via: ExactAudioCopy v0.99pb5
#
DISCID=08105311
DTITLE=Various Artist - Fetenfetzer - Salsa-Party
DYEAR=2002
DGENRE=Salsa
TTITLE0=Loona - Bailando
TTITLE1=Gipsy Kings - Baila me
TTITLE2=Kariba All Stars feat. Tata Güines - Salsoca beat
TTITLE3=Los Del Mar - Tic tic tac
TTITLE4=Carrilio - Maria (un, dos, tres)
TTITLE5=Carrilio - Lambada
TTITLE6=La Chica - La fiesta de la noche
TTITLE7=TNN - La cucamarcha
TTITLE8=Ketama - Agustito
TTITLE9=Los Reyes - La Catalana
TTITLE10=Bellini - Carnaval
TTITLE11=Orquestra Aragon - Si babes bailar mi son
TTITLE12=Marc Anthony - I need to know
TTITLE13=Clarissa y Las Diablitas - Mi negrita
TTITLE14=Isaac Delgado - Nadie me quiere bailar (Klangagenten RMX)
TTITLE15=Africando All Stars feat. Medoune Diallo - Mandali
TTITLE16=Africando All Stars feat. Lokua Kanza - Miye na we
EXTD=YEAR: 2003
EXTT0=
EXTT1=
EXTT2=
EXTT3=
EXTT4=
EXTT5=
EXTT6=
EXTT7=
EXTT8=
EXTT9=
EXTT10=
EXTT11=
EXTT12=
EXTT13=
EXTT14=
EXTT15=
EXTT16=
PLAYORDER=
